<mxfile host="app.diagrams.net" agent="Mozilla/5.0 (Windows NT 10.0; Win64; x64) AppleWebKit/537.36 (KHTML, like Gecko) Chrome/138.0.0.0 Safari/537.36" version="28.0.6">
  <diagram name="페이지-1" id="P63FoP_CtWomOQlccHTw">
    <mxGraphModel dx="1296" dy="675" grid="1" gridSize="10" guides="1" tooltips="1" connect="1" arrows="0" fold="1" page="1" pageScale="1" pageWidth="1920" pageHeight="1080" math="0" shadow="0">
      <root>
        <mxCell id="0" />
        <mxCell id="1" parent="0" />
        <mxCell id="dLRUBfrq3ruPYEKjrWTy-4" value="회원정보" style="html=1;dashed=0;whiteSpace=wrap;strokeColor=default;align=center;verticalAlign=middle;fontFamily=Helvetica;fontSize=23.5;fontColor=default;fillColor=default;strokeWidth=1;fillOpacity=100;imageWidth=24;" vertex="1" parent="1">
          <mxGeometry x="270" y="780" width="170" height="90" as="geometry" />
        </mxCell>
        <mxCell id="dLRUBfrq3ruPYEKjrWTy-6" value="트레이너 및&amp;nbsp;&lt;div&gt;&lt;span style=&quot;background-color: transparent; color: light-dark(rgb(0, 0, 0), rgb(255, 255, 255));&quot;&gt;직원&amp;nbsp;&lt;/span&gt;&lt;span style=&quot;background-color: transparent; color: light-dark(rgb(0, 0, 0), rgb(255, 255, 255));&quot;&gt;정보&lt;/span&gt;&lt;/div&gt;" style="html=1;dashed=0;whiteSpace=wrap;strokeColor=default;align=center;verticalAlign=middle;fontFamily=Helvetica;fontSize=23.5;fontColor=default;fillColor=default;strokeWidth=1;fillOpacity=100;imageWidth=24;" vertex="1" parent="1">
          <mxGeometry x="1535" y="830" width="170" height="90" as="geometry" />
        </mxCell>
        <mxCell id="dLRUBfrq3ruPYEKjrWTy-8" value="결제 및 정산" style="html=1;dashed=0;whiteSpace=wrap;strokeColor=default;align=center;verticalAlign=middle;fontFamily=Helvetica;fontSize=23.5;fontColor=default;fillColor=default;strokeWidth=1;fillOpacity=100;imageWidth=24;" vertex="1" parent="1">
          <mxGeometry x="270" y="510" width="170" height="90" as="geometry" />
        </mxCell>
        <mxCell id="dLRUBfrq3ruPYEKjrWTy-9" value="운동기구" style="html=1;dashed=0;whiteSpace=wrap;strokeColor=default;align=center;verticalAlign=middle;fontFamily=Helvetica;fontSize=23.5;fontColor=default;fillColor=default;strokeWidth=1;fillOpacity=100;imageWidth=24;" vertex="1" parent="1">
          <mxGeometry x="245" y="120" width="170" height="90" as="geometry" />
        </mxCell>
        <mxCell id="dLRUBfrq3ruPYEKjrWTy-17" value="소모품" style="html=1;dashed=0;whiteSpace=wrap;strokeColor=default;align=center;verticalAlign=middle;fontFamily=Helvetica;fontSize=23.5;fontColor=default;fillColor=default;strokeWidth=1;fillOpacity=100;imageWidth=24;" vertex="1" parent="1">
          <mxGeometry x="1520" y="140" width="170" height="90" as="geometry" />
        </mxCell>
        <mxCell id="dLRUBfrq3ruPYEKjrWTy-18" value="유지비" style="html=1;dashed=0;whiteSpace=wrap;strokeColor=default;align=center;verticalAlign=middle;fontFamily=Helvetica;fontSize=23.5;fontColor=default;fillColor=default;strokeWidth=1;fillOpacity=100;imageWidth=24;" vertex="1" parent="1">
          <mxGeometry x="1535" y="495" width="170" height="90" as="geometry" />
        </mxCell>
        <mxCell id="dLRUBfrq3ruPYEKjrWTy-25" value="이용 기간" style="ellipse;whiteSpace=wrap;html=1;fontSize=12;dashed=0;strokeWidth=1;" vertex="1" parent="1">
          <mxGeometry x="110" y="770" width="100" height="50" as="geometry" />
        </mxCell>
        <mxCell id="dLRUBfrq3ruPYEKjrWTy-27" value="이름" style="ellipse;whiteSpace=wrap;html=1;fontSize=12;dashed=0;strokeWidth=1;" vertex="1" parent="1">
          <mxGeometry x="370" y="920" width="100" height="50" as="geometry" />
        </mxCell>
        <mxCell id="dLRUBfrq3ruPYEKjrWTy-28" value="주소" style="ellipse;whiteSpace=wrap;html=1;fontSize=12;dashed=0;strokeWidth=1;" vertex="1" parent="1">
          <mxGeometry x="520" y="920" width="100" height="50" as="geometry" />
        </mxCell>
        <mxCell id="dLRUBfrq3ruPYEKjrWTy-29" value="전화번호" style="ellipse;whiteSpace=wrap;html=1;fontSize=12;dashed=0;strokeWidth=1;" vertex="1" parent="1">
          <mxGeometry x="230" y="920" width="100" height="50" as="geometry" />
        </mxCell>
        <mxCell id="dLRUBfrq3ruPYEKjrWTy-33" value="라커룸 여부" style="ellipse;whiteSpace=wrap;html=1;fontSize=12;dashed=0;strokeWidth=1;" vertex="1" parent="1">
          <mxGeometry x="110" y="920" width="100" height="50" as="geometry" />
        </mxCell>
        <mxCell id="dLRUBfrq3ruPYEKjrWTy-35" value="PT 여부" style="ellipse;whiteSpace=wrap;html=1;fontSize=12;dashed=0;strokeWidth=1;" vertex="1" parent="1">
          <mxGeometry x="110" y="850" width="100" height="50" as="geometry" />
        </mxCell>
        <mxCell id="dLRUBfrq3ruPYEKjrWTy-36" value="&lt;u&gt;ID&lt;/u&gt;" style="ellipse;whiteSpace=wrap;html=1;fontSize=12;dashed=0;strokeWidth=1;" vertex="1" parent="1">
          <mxGeometry x="520" y="830" width="100" height="50" as="geometry" />
        </mxCell>
        <mxCell id="dLRUBfrq3ruPYEKjrWTy-37" value="전기세" style="ellipse;whiteSpace=wrap;html=1;fontSize=12;dashed=0;strokeWidth=1;" vertex="1" parent="1">
          <mxGeometry x="1560" y="620" width="100" height="50" as="geometry" />
        </mxCell>
        <mxCell id="dLRUBfrq3ruPYEKjrWTy-38" value="수도세" style="ellipse;whiteSpace=wrap;html=1;fontSize=12;dashed=0;strokeWidth=1;" vertex="1" parent="1">
          <mxGeometry x="1555" y="400" width="100" height="50" as="geometry" />
        </mxCell>
        <mxCell id="dLRUBfrq3ruPYEKjrWTy-39" value="트레이너&lt;div&gt;월급&lt;/div&gt;" style="ellipse;whiteSpace=wrap;html=1;fontSize=12;dashed=0;strokeWidth=1;" vertex="1" parent="1">
          <mxGeometry x="1770" y="400" width="100" height="50" as="geometry" />
        </mxCell>
        <mxCell id="dLRUBfrq3ruPYEKjrWTy-40" value="월세" style="ellipse;whiteSpace=wrap;html=1;fontSize=12;dashed=0;strokeWidth=1;" vertex="1" parent="1">
          <mxGeometry x="1770" y="515" width="100" height="50" as="geometry" />
        </mxCell>
        <mxCell id="dLRUBfrq3ruPYEKjrWTy-41" value="소모품비" style="ellipse;whiteSpace=wrap;html=1;fontSize=12;dashed=0;strokeWidth=1;" vertex="1" parent="1">
          <mxGeometry x="1770" y="620" width="100" height="50" as="geometry" />
        </mxCell>
        <mxCell id="dLRUBfrq3ruPYEKjrWTy-43" value="샴푸" style="ellipse;whiteSpace=wrap;html=1;fontSize=12;dashed=0;strokeWidth=1;" vertex="1" parent="1">
          <mxGeometry x="1740" y="160" width="100" height="50" as="geometry" />
        </mxCell>
        <mxCell id="dLRUBfrq3ruPYEKjrWTy-44" value="수건" style="ellipse;whiteSpace=wrap;html=1;fontSize=12;dashed=0;strokeWidth=1;" vertex="1" parent="1">
          <mxGeometry x="1740" y="240" width="100" height="50" as="geometry" />
        </mxCell>
        <mxCell id="dLRUBfrq3ruPYEKjrWTy-45" value="휴지" style="ellipse;whiteSpace=wrap;html=1;fontSize=12;dashed=0;strokeWidth=1;" vertex="1" parent="1">
          <mxGeometry x="1740" y="80" width="100" height="50" as="geometry" />
        </mxCell>
        <mxCell id="dLRUBfrq3ruPYEKjrWTy-46" value="종이컵" style="ellipse;whiteSpace=wrap;html=1;fontSize=12;dashed=0;strokeWidth=1;" vertex="1" parent="1">
          <mxGeometry x="1555" y="30" width="100" height="50" as="geometry" />
        </mxCell>
        <mxCell id="dLRUBfrq3ruPYEKjrWTy-47" value="운동복" style="ellipse;whiteSpace=wrap;html=1;fontSize=12;dashed=0;strokeWidth=1;" vertex="1" parent="1">
          <mxGeometry x="1555" y="300" width="100" height="50" as="geometry" />
        </mxCell>
        <mxCell id="dLRUBfrq3ruPYEKjrWTy-48" value="이름" style="ellipse;whiteSpace=wrap;html=1;fontSize=12;dashed=0;strokeWidth=1;" vertex="1" parent="1">
          <mxGeometry x="170" y="40" width="100" height="50" as="geometry" />
        </mxCell>
        <mxCell id="dLRUBfrq3ruPYEKjrWTy-49" value="사용 기간" style="ellipse;whiteSpace=wrap;html=1;fontSize=12;dashed=0;strokeWidth=1;" vertex="1" parent="1">
          <mxGeometry x="370" y="40" width="100" height="50" as="geometry" />
        </mxCell>
        <mxCell id="dLRUBfrq3ruPYEKjrWTy-50" value="상태" style="ellipse;whiteSpace=wrap;html=1;fontSize=12;dashed=0;strokeWidth=1;" vertex="1" parent="1">
          <mxGeometry x="80" y="140" width="100" height="50" as="geometry" />
        </mxCell>
        <mxCell id="dLRUBfrq3ruPYEKjrWTy-51" value="메이커" style="ellipse;whiteSpace=wrap;html=1;fontSize=12;dashed=0;strokeWidth=1;" vertex="1" parent="1">
          <mxGeometry x="170" y="240" width="100" height="50" as="geometry" />
        </mxCell>
        <mxCell id="dLRUBfrq3ruPYEKjrWTy-52" value="갯수" style="ellipse;whiteSpace=wrap;html=1;fontSize=12;dashed=0;strokeWidth=1;" vertex="1" parent="1">
          <mxGeometry x="370" y="240" width="100" height="50" as="geometry" />
        </mxCell>
        <mxCell id="dLRUBfrq3ruPYEKjrWTy-53" value="결제 내역" style="ellipse;whiteSpace=wrap;html=1;fontSize=12;dashed=0;strokeWidth=1;" vertex="1" parent="1">
          <mxGeometry x="120" y="420" width="100" height="50" as="geometry" />
        </mxCell>
        <mxCell id="dLRUBfrq3ruPYEKjrWTy-54" value="할인 적용 여부" style="ellipse;whiteSpace=wrap;html=1;fontSize=12;dashed=0;strokeWidth=1;" vertex="1" parent="1">
          <mxGeometry x="120" y="515" width="100" height="50" as="geometry" />
        </mxCell>
        <mxCell id="dLRUBfrq3ruPYEKjrWTy-55" value="결제 방식" style="ellipse;whiteSpace=wrap;html=1;fontSize=12;dashed=0;strokeWidth=1;" vertex="1" parent="1">
          <mxGeometry x="120" y="600" width="100" height="50" as="geometry" />
        </mxCell>
        <mxCell id="dLRUBfrq3ruPYEKjrWTy-57" value="결제 항목" style="ellipse;whiteSpace=wrap;html=1;fontSize=12;dashed=0;strokeWidth=1;" vertex="1" parent="1">
          <mxGeometry x="280" y="420" width="100" height="50" as="geometry" />
        </mxCell>
        <mxCell id="dLRUBfrq3ruPYEKjrWTy-58" value="ID" style="ellipse;whiteSpace=wrap;html=1;fontSize=12;dashed=0;strokeWidth=1;" vertex="1" parent="1">
          <mxGeometry x="1570" y="770" width="100" height="50" as="geometry" />
        </mxCell>
        <mxCell id="dLRUBfrq3ruPYEKjrWTy-59" value="이름" style="ellipse;whiteSpace=wrap;html=1;fontSize=12;dashed=0;strokeWidth=1;" vertex="1" parent="1">
          <mxGeometry x="1720" y="770" width="100" height="50" as="geometry" />
        </mxCell>
        <mxCell id="dLRUBfrq3ruPYEKjrWTy-60" value="성별" style="ellipse;whiteSpace=wrap;html=1;fontSize=12;dashed=0;strokeWidth=1;" vertex="1" parent="1">
          <mxGeometry x="1720" y="830" width="100" height="50" as="geometry" />
        </mxCell>
        <mxCell id="dLRUBfrq3ruPYEKjrWTy-61" value="담당 회원" style="ellipse;whiteSpace=wrap;html=1;fontSize=12;dashed=0;strokeWidth=1;" vertex="1" parent="1">
          <mxGeometry x="1720" y="890" width="100" height="50" as="geometry" />
        </mxCell>
        <mxCell id="dLRUBfrq3ruPYEKjrWTy-62" value="수업 정보" style="ellipse;whiteSpace=wrap;html=1;fontSize=12;dashed=0;strokeWidth=1;" vertex="1" parent="1">
          <mxGeometry x="1720" y="960" width="100" height="50" as="geometry" />
        </mxCell>
        <mxCell id="dLRUBfrq3ruPYEKjrWTy-63" value="자격증/경력" style="ellipse;whiteSpace=wrap;html=1;fontSize=12;dashed=0;strokeWidth=1;" vertex="1" parent="1">
          <mxGeometry x="1570" y="960" width="100" height="50" as="geometry" />
        </mxCell>
        <mxCell id="dLRUBfrq3ruPYEKjrWTy-64" value="월급" style="ellipse;whiteSpace=wrap;html=1;fontSize=12;dashed=0;strokeWidth=1;" vertex="1" parent="1">
          <mxGeometry x="1430" y="960" width="100" height="50" as="geometry" />
        </mxCell>
        <mxCell id="dLRUBfrq3ruPYEKjrWTy-65" value="출입 관리" style="html=1;dashed=0;whiteSpace=wrap;strokeColor=default;align=center;verticalAlign=middle;fontFamily=Helvetica;fontSize=23.5;fontColor=default;fillColor=default;strokeWidth=1;fillOpacity=100;imageWidth=24;" vertex="1" parent="1">
          <mxGeometry x="980" y="880" width="170" height="90" as="geometry" />
        </mxCell>
        <mxCell id="dLRUBfrq3ruPYEKjrWTy-66" value="&lt;u&gt;ID&lt;/u&gt;" style="ellipse;whiteSpace=wrap;html=1;fontSize=12;dashed=0;strokeWidth=1;" vertex="1" parent="1">
          <mxGeometry x="1015" y="1000" width="100" height="50" as="geometry" />
        </mxCell>
        <mxCell id="dLRUBfrq3ruPYEKjrWTy-67" value="방문 일시" style="ellipse;whiteSpace=wrap;html=1;fontSize=12;dashed=0;strokeWidth=1;" vertex="1" parent="1">
          <mxGeometry x="1180" y="900" width="100" height="50" as="geometry" />
        </mxCell>
        <mxCell id="dLRUBfrq3ruPYEKjrWTy-68" value="출입 기록" style="ellipse;whiteSpace=wrap;html=1;fontSize=12;dashed=0;strokeWidth=1;" vertex="1" parent="1">
          <mxGeometry x="840" y="900" width="100" height="50" as="geometry" />
        </mxCell>
        <mxCell id="dLRUBfrq3ruPYEKjrWTy-69" value="성별" style="ellipse;whiteSpace=wrap;html=1;fontSize=12;dashed=0;strokeWidth=1;" vertex="1" parent="1">
          <mxGeometry x="110" y="700" width="100" height="50" as="geometry" />
        </mxCell>
        <mxCell id="dLRUBfrq3ruPYEKjrWTy-70" value="나이" style="ellipse;whiteSpace=wrap;html=1;fontSize=12;dashed=0;strokeWidth=1;" vertex="1" parent="1">
          <mxGeometry x="520" y="670" width="100" height="50" as="geometry" />
        </mxCell>
        <mxCell id="dLRUBfrq3ruPYEKjrWTy-71" value="E-mail" style="ellipse;whiteSpace=wrap;html=1;fontSize=12;dashed=0;strokeWidth=1;" vertex="1" parent="1">
          <mxGeometry x="520" y="750" width="100" height="50" as="geometry" />
        </mxCell>
        <mxCell id="dLRUBfrq3ruPYEKjrWTy-79" value="" style="endArrow=none;html=1;rounded=0;fontFamily=Helvetica;fontSize=12;fontColor=default;" edge="1" parent="1">
          <mxGeometry relative="1" as="geometry">
            <mxPoint x="1705" y="540" as="sourcePoint" />
            <mxPoint x="1770" y="540" as="targetPoint" />
          </mxGeometry>
        </mxCell>
        <mxCell id="dLRUBfrq3ruPYEKjrWTy-80" value="" style="endArrow=none;html=1;rounded=0;fontFamily=Helvetica;fontSize=12;fontColor=default;entryX=0;entryY=0;entryDx=0;entryDy=0;" edge="1" parent="1" target="dLRUBfrq3ruPYEKjrWTy-41">
          <mxGeometry relative="1" as="geometry">
            <mxPoint x="1705" y="585" as="sourcePoint" />
            <mxPoint x="1770" y="585" as="targetPoint" />
          </mxGeometry>
        </mxCell>
        <mxCell id="dLRUBfrq3ruPYEKjrWTy-81" value="" style="endArrow=none;html=1;rounded=0;fontFamily=Helvetica;fontSize=12;fontColor=default;" edge="1" parent="1" target="dLRUBfrq3ruPYEKjrWTy-39">
          <mxGeometry relative="1" as="geometry">
            <mxPoint x="1705" y="494.52" as="sourcePoint" />
            <mxPoint x="1770" y="494.52" as="targetPoint" />
          </mxGeometry>
        </mxCell>
        <mxCell id="dLRUBfrq3ruPYEKjrWTy-82" value="" style="endArrow=none;html=1;rounded=0;fontFamily=Helvetica;fontSize=12;fontColor=default;entryX=0.5;entryY=0;entryDx=0;entryDy=0;exitX=0.5;exitY=1;exitDx=0;exitDy=0;" edge="1" parent="1" source="dLRUBfrq3ruPYEKjrWTy-18" target="dLRUBfrq3ruPYEKjrWTy-37">
          <mxGeometry relative="1" as="geometry">
            <mxPoint x="1600" y="585" as="sourcePoint" />
            <mxPoint x="1679" y="627" as="targetPoint" />
          </mxGeometry>
        </mxCell>
        <mxCell id="dLRUBfrq3ruPYEKjrWTy-83" value="" style="endArrow=none;html=1;rounded=0;fontFamily=Helvetica;fontSize=12;fontColor=default;entryX=0.5;entryY=0;entryDx=0;entryDy=0;" edge="1" parent="1" target="dLRUBfrq3ruPYEKjrWTy-18">
          <mxGeometry relative="1" as="geometry">
            <mxPoint x="1605" y="450" as="sourcePoint" />
            <mxPoint x="1615" y="485" as="targetPoint" />
          </mxGeometry>
        </mxCell>
        <mxCell id="dLRUBfrq3ruPYEKjrWTy-84" value="" style="endArrow=none;html=1;rounded=0;fontFamily=Helvetica;fontSize=12;fontColor=default;entryX=0.5;entryY=0;entryDx=0;entryDy=0;" edge="1" parent="1" target="dLRUBfrq3ruPYEKjrWTy-47">
          <mxGeometry relative="1" as="geometry">
            <mxPoint x="1602.5" y="230" as="sourcePoint" />
            <mxPoint x="1617.5" y="275" as="targetPoint" />
          </mxGeometry>
        </mxCell>
        <mxCell id="dLRUBfrq3ruPYEKjrWTy-86" value="" style="endArrow=none;html=1;rounded=0;fontFamily=Helvetica;fontSize=12;fontColor=default;entryX=0.5;entryY=0;entryDx=0;entryDy=0;" edge="1" parent="1" target="dLRUBfrq3ruPYEKjrWTy-17">
          <mxGeometry relative="1" as="geometry">
            <mxPoint x="1603.75" y="80" as="sourcePoint" />
            <mxPoint x="1606.25" y="150" as="targetPoint" />
          </mxGeometry>
        </mxCell>
        <mxCell id="dLRUBfrq3ruPYEKjrWTy-87" value="" style="endArrow=none;html=1;rounded=0;fontFamily=Helvetica;fontSize=12;fontColor=default;entryX=0;entryY=0;entryDx=0;entryDy=0;" edge="1" parent="1" target="dLRUBfrq3ruPYEKjrWTy-44">
          <mxGeometry relative="1" as="geometry">
            <mxPoint x="1690" y="230" as="sourcePoint" />
            <mxPoint x="1691.25" y="290" as="targetPoint" />
          </mxGeometry>
        </mxCell>
        <mxCell id="dLRUBfrq3ruPYEKjrWTy-88" value="" style="endArrow=none;html=1;rounded=0;fontFamily=Helvetica;fontSize=12;fontColor=default;entryX=0;entryY=0.5;entryDx=0;entryDy=0;" edge="1" parent="1" target="dLRUBfrq3ruPYEKjrWTy-43">
          <mxGeometry relative="1" as="geometry">
            <mxPoint x="1690" y="190" as="sourcePoint" />
            <mxPoint x="1754" y="207" as="targetPoint" />
          </mxGeometry>
        </mxCell>
        <mxCell id="dLRUBfrq3ruPYEKjrWTy-89" value="" style="endArrow=none;html=1;rounded=0;fontFamily=Helvetica;fontSize=12;fontColor=default;entryX=0;entryY=0.5;entryDx=0;entryDy=0;" edge="1" parent="1" target="dLRUBfrq3ruPYEKjrWTy-45">
          <mxGeometry relative="1" as="geometry">
            <mxPoint x="1690" y="140" as="sourcePoint" />
            <mxPoint x="1740" y="135" as="targetPoint" />
          </mxGeometry>
        </mxCell>
        <mxCell id="dLRUBfrq3ruPYEKjrWTy-91" value="" style="endArrow=none;html=1;rounded=0;fontFamily=Helvetica;fontSize=12;fontColor=default;entryX=0;entryY=0.5;entryDx=0;entryDy=0;" edge="1" parent="1" target="dLRUBfrq3ruPYEKjrWTy-36">
          <mxGeometry relative="1" as="geometry">
            <mxPoint x="440" y="835" as="sourcePoint" />
            <mxPoint x="490" y="830" as="targetPoint" />
          </mxGeometry>
        </mxCell>
        <mxCell id="dLRUBfrq3ruPYEKjrWTy-92" value="" style="endArrow=none;html=1;rounded=0;fontFamily=Helvetica;fontSize=12;fontColor=default;" edge="1" parent="1" target="dLRUBfrq3ruPYEKjrWTy-28">
          <mxGeometry relative="1" as="geometry">
            <mxPoint x="440" y="870" as="sourcePoint" />
            <mxPoint x="520" y="890" as="targetPoint" />
          </mxGeometry>
        </mxCell>
        <mxCell id="dLRUBfrq3ruPYEKjrWTy-93" value="" style="endArrow=none;html=1;rounded=0;fontFamily=Helvetica;fontSize=12;fontColor=default;entryX=0.5;entryY=0;entryDx=0;entryDy=0;" edge="1" parent="1" target="dLRUBfrq3ruPYEKjrWTy-27">
          <mxGeometry relative="1" as="geometry">
            <mxPoint x="380" y="870" as="sourcePoint" />
            <mxPoint x="477" y="926" as="targetPoint" />
          </mxGeometry>
        </mxCell>
        <mxCell id="dLRUBfrq3ruPYEKjrWTy-94" value="" style="endArrow=none;html=1;rounded=0;fontFamily=Helvetica;fontSize=12;fontColor=default;entryX=0.5;entryY=0;entryDx=0;entryDy=0;" edge="1" parent="1" target="dLRUBfrq3ruPYEKjrWTy-29">
          <mxGeometry relative="1" as="geometry">
            <mxPoint x="320" y="870" as="sourcePoint" />
            <mxPoint x="360" y="920" as="targetPoint" />
          </mxGeometry>
        </mxCell>
        <mxCell id="dLRUBfrq3ruPYEKjrWTy-95" value="" style="endArrow=none;html=1;rounded=0;fontFamily=Helvetica;fontSize=12;fontColor=default;entryX=1;entryY=0.5;entryDx=0;entryDy=0;exitX=0;exitY=0;exitDx=0;exitDy=0;" edge="1" parent="1" source="dLRUBfrq3ruPYEKjrWTy-4" target="dLRUBfrq3ruPYEKjrWTy-69">
          <mxGeometry relative="1" as="geometry">
            <mxPoint x="250" y="670" as="sourcePoint" />
            <mxPoint x="210" y="720" as="targetPoint" />
          </mxGeometry>
        </mxCell>
        <mxCell id="dLRUBfrq3ruPYEKjrWTy-96" value="" style="endArrow=none;html=1;rounded=0;fontFamily=Helvetica;fontSize=12;fontColor=default;entryX=1;entryY=0.5;entryDx=0;entryDy=0;exitX=0;exitY=0.5;exitDx=0;exitDy=0;" edge="1" parent="1" source="dLRUBfrq3ruPYEKjrWTy-4">
          <mxGeometry relative="1" as="geometry">
            <mxPoint x="270" y="855" as="sourcePoint" />
            <mxPoint x="210" y="800" as="targetPoint" />
          </mxGeometry>
        </mxCell>
        <mxCell id="dLRUBfrq3ruPYEKjrWTy-97" value="" style="endArrow=none;html=1;rounded=0;fontFamily=Helvetica;fontSize=12;fontColor=default;entryX=1;entryY=0.5;entryDx=0;entryDy=0;exitX=0;exitY=1;exitDx=0;exitDy=0;" edge="1" parent="1" source="dLRUBfrq3ruPYEKjrWTy-4">
          <mxGeometry relative="1" as="geometry">
            <mxPoint x="270" y="900" as="sourcePoint" />
            <mxPoint x="210" y="875" as="targetPoint" />
          </mxGeometry>
        </mxCell>
        <mxCell id="dLRUBfrq3ruPYEKjrWTy-98" value="" style="endArrow=none;html=1;rounded=0;fontFamily=Helvetica;fontSize=12;fontColor=default;exitX=0.145;exitY=1.002;exitDx=0;exitDy=0;exitPerimeter=0;" edge="1" parent="1" source="dLRUBfrq3ruPYEKjrWTy-4">
          <mxGeometry relative="1" as="geometry">
            <mxPoint x="260" y="922.5" as="sourcePoint" />
            <mxPoint x="200" y="930" as="targetPoint" />
          </mxGeometry>
        </mxCell>
        <mxCell id="dLRUBfrq3ruPYEKjrWTy-99" value="" style="endArrow=none;html=1;rounded=0;fontFamily=Helvetica;fontSize=12;fontColor=default;entryX=0;entryY=0.5;entryDx=0;entryDy=0;" edge="1" parent="1" target="dLRUBfrq3ruPYEKjrWTy-71">
          <mxGeometry relative="1" as="geometry">
            <mxPoint x="440" y="780" as="sourcePoint" />
            <mxPoint x="480" y="830" as="targetPoint" />
          </mxGeometry>
        </mxCell>
        <mxCell id="dLRUBfrq3ruPYEKjrWTy-100" value="" style="endArrow=none;html=1;rounded=0;fontFamily=Helvetica;fontSize=12;fontColor=default;entryX=0;entryY=0.5;entryDx=0;entryDy=0;" edge="1" parent="1" target="dLRUBfrq3ruPYEKjrWTy-70">
          <mxGeometry relative="1" as="geometry">
            <mxPoint x="400" y="780" as="sourcePoint" />
            <mxPoint x="480" y="775" as="targetPoint" />
          </mxGeometry>
        </mxCell>
        <mxCell id="dLRUBfrq3ruPYEKjrWTy-101" value="" style="endArrow=none;html=1;rounded=0;fontFamily=Helvetica;fontSize=12;fontColor=default;entryX=0;entryY=1;entryDx=0;entryDy=0;" edge="1" parent="1" target="dLRUBfrq3ruPYEKjrWTy-8">
          <mxGeometry relative="1" as="geometry">
            <mxPoint x="220" y="627" as="sourcePoint" />
            <mxPoint x="300" y="622.5" as="targetPoint" />
          </mxGeometry>
        </mxCell>
        <mxCell id="dLRUBfrq3ruPYEKjrWTy-102" value="" style="endArrow=none;html=1;rounded=0;fontFamily=Helvetica;fontSize=12;fontColor=default;entryX=0;entryY=0.5;entryDx=0;entryDy=0;" edge="1" parent="1" target="dLRUBfrq3ruPYEKjrWTy-8">
          <mxGeometry relative="1" as="geometry">
            <mxPoint x="220" y="540" as="sourcePoint" />
            <mxPoint x="270" y="513" as="targetPoint" />
          </mxGeometry>
        </mxCell>
        <mxCell id="dLRUBfrq3ruPYEKjrWTy-103" value="" style="endArrow=none;html=1;rounded=0;fontFamily=Helvetica;fontSize=12;fontColor=default;entryX=0;entryY=0;entryDx=0;entryDy=0;" edge="1" parent="1" target="dLRUBfrq3ruPYEKjrWTy-8">
          <mxGeometry relative="1" as="geometry">
            <mxPoint x="210" y="460" as="sourcePoint" />
            <mxPoint x="260" y="475" as="targetPoint" />
          </mxGeometry>
        </mxCell>
        <mxCell id="dLRUBfrq3ruPYEKjrWTy-104" value="" style="endArrow=none;html=1;rounded=0;fontFamily=Helvetica;fontSize=12;fontColor=default;entryX=0.5;entryY=0;entryDx=0;entryDy=0;" edge="1" parent="1" target="dLRUBfrq3ruPYEKjrWTy-8">
          <mxGeometry relative="1" as="geometry">
            <mxPoint x="330" y="470" as="sourcePoint" />
            <mxPoint x="390" y="520" as="targetPoint" />
          </mxGeometry>
        </mxCell>
        <mxCell id="dLRUBfrq3ruPYEKjrWTy-105" value="" style="endArrow=none;html=1;rounded=0;fontFamily=Helvetica;fontSize=12;fontColor=default;entryX=0.5;entryY=0;entryDx=0;entryDy=0;" edge="1" parent="1" target="dLRUBfrq3ruPYEKjrWTy-66">
          <mxGeometry relative="1" as="geometry">
            <mxPoint x="1070" y="970" as="sourcePoint" />
            <mxPoint x="1130" y="1020" as="targetPoint" />
          </mxGeometry>
        </mxCell>
        <mxCell id="dLRUBfrq3ruPYEKjrWTy-106" value="" style="endArrow=none;html=1;rounded=0;fontFamily=Helvetica;fontSize=12;fontColor=default;entryX=0;entryY=0.5;entryDx=0;entryDy=0;" edge="1" parent="1" target="dLRUBfrq3ruPYEKjrWTy-67">
          <mxGeometry relative="1" as="geometry">
            <mxPoint x="1150" y="920" as="sourcePoint" />
            <mxPoint x="1145" y="950" as="targetPoint" />
          </mxGeometry>
        </mxCell>
        <mxCell id="dLRUBfrq3ruPYEKjrWTy-107" value="" style="endArrow=none;html=1;rounded=0;fontFamily=Helvetica;fontSize=12;fontColor=default;entryX=0;entryY=0.5;entryDx=0;entryDy=0;" edge="1" parent="1" target="dLRUBfrq3ruPYEKjrWTy-65">
          <mxGeometry relative="1" as="geometry">
            <mxPoint x="940" y="922.5" as="sourcePoint" />
            <mxPoint x="970" y="927.5" as="targetPoint" />
          </mxGeometry>
        </mxCell>
        <mxCell id="dLRUBfrq3ruPYEKjrWTy-108" value="" style="endArrow=none;html=1;rounded=0;fontFamily=Helvetica;fontSize=12;fontColor=default;" edge="1" parent="1">
          <mxGeometry relative="1" as="geometry">
            <mxPoint x="1705" y="853.75" as="sourcePoint" />
            <mxPoint x="1720" y="856" as="targetPoint" />
          </mxGeometry>
        </mxCell>
        <mxCell id="dLRUBfrq3ruPYEKjrWTy-109" value="" style="endArrow=none;html=1;rounded=0;fontFamily=Helvetica;fontSize=12;fontColor=default;" edge="1" parent="1">
          <mxGeometry relative="1" as="geometry">
            <mxPoint x="1705" y="910" as="sourcePoint" />
            <mxPoint x="1720" y="912.25" as="targetPoint" />
          </mxGeometry>
        </mxCell>
        <mxCell id="dLRUBfrq3ruPYEKjrWTy-110" value="" style="endArrow=none;html=1;rounded=0;fontFamily=Helvetica;fontSize=12;fontColor=default;entryX=0;entryY=0;entryDx=0;entryDy=0;exitX=1;exitY=1;exitDx=0;exitDy=0;" edge="1" parent="1" source="dLRUBfrq3ruPYEKjrWTy-6" target="dLRUBfrq3ruPYEKjrWTy-62">
          <mxGeometry relative="1" as="geometry">
            <mxPoint x="1720" y="967.75" as="sourcePoint" />
            <mxPoint x="1735" y="970" as="targetPoint" />
          </mxGeometry>
        </mxCell>
        <mxCell id="dLRUBfrq3ruPYEKjrWTy-111" value="" style="endArrow=none;html=1;rounded=0;fontFamily=Helvetica;fontSize=12;fontColor=default;exitX=0.5;exitY=1;exitDx=0;exitDy=0;entryX=0.5;entryY=0;entryDx=0;entryDy=0;" edge="1" parent="1" source="dLRUBfrq3ruPYEKjrWTy-6" target="dLRUBfrq3ruPYEKjrWTy-63">
          <mxGeometry relative="1" as="geometry">
            <mxPoint x="1620" y="940" as="sourcePoint" />
            <mxPoint x="1635" y="942.25" as="targetPoint" />
          </mxGeometry>
        </mxCell>
        <mxCell id="dLRUBfrq3ruPYEKjrWTy-112" value="" style="endArrow=none;html=1;rounded=0;fontFamily=Helvetica;fontSize=12;fontColor=default;exitX=0;exitY=1;exitDx=0;exitDy=0;entryX=0.5;entryY=0;entryDx=0;entryDy=0;" edge="1" parent="1" source="dLRUBfrq3ruPYEKjrWTy-6">
          <mxGeometry relative="1" as="geometry">
            <mxPoint x="1479.74" y="920" as="sourcePoint" />
            <mxPoint x="1479.74" y="960" as="targetPoint" />
          </mxGeometry>
        </mxCell>
        <mxCell id="dLRUBfrq3ruPYEKjrWTy-113" value="" style="endArrow=none;html=1;rounded=0;fontFamily=Helvetica;fontSize=12;fontColor=default;exitX=0.5;exitY=1;exitDx=0;exitDy=0;entryX=0.5;entryY=0;entryDx=0;entryDy=0;" edge="1" parent="1" source="dLRUBfrq3ruPYEKjrWTy-58">
          <mxGeometry relative="1" as="geometry">
            <mxPoint x="1760.26" y="790" as="sourcePoint" />
            <mxPoint x="1620" y="830" as="targetPoint" />
          </mxGeometry>
        </mxCell>
        <mxCell id="dLRUBfrq3ruPYEKjrWTy-116" value="" style="endArrow=none;html=1;rounded=0;fontFamily=Helvetica;fontSize=12;fontColor=default;exitX=0;exitY=1;exitDx=0;exitDy=0;entryX=0.5;entryY=0;entryDx=0;entryDy=0;" edge="1" parent="1" source="dLRUBfrq3ruPYEKjrWTy-59">
          <mxGeometry relative="1" as="geometry">
            <mxPoint x="1705" y="820" as="sourcePoint" />
            <mxPoint x="1705" y="830" as="targetPoint" />
          </mxGeometry>
        </mxCell>
      </root>
    </mxGraphModel>
  </diagram>
</mxfile>
